# Blender v2.93.5 OBJ File: ''
# www.blender.org
mtllib fern.mtl
o Plane.004
v -0.185244 0.986820 -1.079001
v 0.030843 1.307376 -0.584158
v 0.136856 0.783953 -0.151581
v 0.126082 0.001726 -0.100960
v -0.112207 1.212123 -0.368306
v -0.809461 0.732558 0.951892
v -0.656834 0.875566 0.775672
v 0.005472 -0.009098 -0.128215
v 0.100369 0.001524 0.025080
v -0.053174 0.924483 0.200067
v -0.379668 0.988428 0.403625
v 0.303395 1.044218 0.791641
v -0.119924 -0.000036 -0.021912
v 0.016358 0.001475 -0.101710
v 0.206395 1.003234 0.181778
v 0.537452 0.706754 1.104847
v 0.003843 0.938739 0.191041
v 0.909379 0.673040 -0.468832
v 0.446024 1.101067 -0.057912
v 0.088692 -0.000148 0.028955
v 0.227927 0.853132 -0.141986
v -0.665941 0.973444 -0.859783
v -0.041351 -0.001651 -0.100611
v -0.242479 1.214135 -0.148208
v -0.130241 1.170368 -0.288344
v 0.195747 0.748325 -1.065694
v 0.191752 1.077747 -0.675103
v 0.035109 -0.022001 -0.188606
v 0.120112 1.149658 -0.442489
v -0.031200 -0.000035 0.086399
v 1.093468 0.660414 0.450604
v 0.228859 1.033873 0.155941
v -0.063646 0.001943 -0.112928
v 0.371868 1.027723 0.043245
v -0.017377 0.704519 1.271992
v -0.018444 0.008139 0.133049
v -0.010259 0.909546 0.978451
v 0.019219 0.972332 0.397966
v -0.084902 1.015527 0.190851
v -1.124073 0.664750 0.253364
v 0.131187 -0.006008 -0.071741
v -0.292451 0.972024 0.003888
v -0.311011 1.047431 0.166896
v 0.105545 0.000137 0.129997
v 0.484903 1.122614 -0.369134
v 0.284558 1.238479 -0.382629
vt 0.049662 0.445785
vt 0.574861 0.391450
vt 0.636336 0.440621
vt 0.036391 0.075770
vt 0.384479 0.065603
vt 0.494386 0.079533
vt 0.399138 0.587274
vt 0.436535 0.518597
vt 0.663960 0.596190
vt 0.036560 0.507304
vt 0.553737 0.778208
vt 0.740848 0.791939
vt 0.474694 0.836357
vt 0.022133 0.822419
vt 0.390153 0.777231
vt 0.522953 0.925488
vt 0.511176 0.874025
vt 0.774769 0.910046
vt 0.613683 0.200685
vt 0.712354 0.200709
vt 0.637463 0.252906
vt 0.883672 0.193682
vt 0.947652 0.193471
vt 0.878968 0.567557
vt 0.944745 0.588573
vt 0.907859 0.952263
vt 0.471235 0.304680
vt 0.686535 0.304214
vt 0.416883 0.367935
vt 0.793880 0.371576
vt 0.392937 0.465119
vt 0.053002 0.018893
vt 0.029376 0.569589
vt 0.833540 0.598474
vt 0.037155 0.914414
vt 0.002492 0.662881
vt 0.381386 0.726315
vt -0.002150 0.725725
vt 0.095203 0.206526
vt 0.036345 0.281590
vt 0.414300 0.661791
vt 0.763870 0.676415
vn -0.7383 -0.2808 -0.6132
vn -0.4453 -0.6721 -0.5917
vn 0.3282 -0.9251 -0.1907
vn -0.6663 -0.2843 0.6894
vn 0.3901 -0.2835 0.8760
vn 0.4720 -0.2659 0.8406
vn 0.2417 -0.6566 0.7145
vn 0.1287 -0.8732 0.4701
vn -0.8075 -0.5660 0.1665
vn 0.1368 -0.2937 0.9461
vn -0.3380 -0.9351 -0.1070
vn -0.7352 -0.6636 -0.1378
vn 0.3536 -0.9036 -0.2419
vn 0.5824 -0.2500 -0.7735
vn 0.6795 -0.3862 -0.6238
vn -0.5577 -0.8068 -0.1947
vn -0.5862 -0.7778 -0.2266
vn 0.0177 -0.9503 0.3109
vn 0.5447 -0.7283 -0.4158
vn 0.3333 -0.8669 0.3707
vn 0.5454 -0.7156 -0.4364
vn 0.9600 -0.2308 -0.1586
vn 0.9644 -0.2574 -0.0611
vn 0.4116 -0.8015 0.4338
vn 0.1018 -0.9779 0.1826
vn -0.2850 -0.9062 -0.3122
vn -0.5547 -0.8252 0.1068
vn -0.1773 -0.9774 -0.1147
vn -0.8727 -0.3152 0.3730
vn 0.6957 -0.7023 0.1511
vn 0.9615 -0.0309 -0.2730
vn -0.8190 -0.2355 0.5233
vn 0.4908 -0.2538 0.8335
vn -0.8765 -0.4505 0.1697
vn -0.7941 -0.1544 -0.5878
vn -0.9176 -0.3873 -0.0892
vn -0.5593 -0.7793 0.2825
vn -0.9155 -0.3885 -0.1045
vn 0.4367 -0.2207 -0.8721
vn -0.8972 -0.0841 0.4335
vn -0.1897 -0.8992 0.3944
vn 0.4227 -0.8032 0.4197
usemtl Material.001
s 1
f 4/1/1 5/2/2 2/3/3
f 8/4/4 10/5/5 11/6/6
f 17/7/7 15/8/8 12/9/9
f 15/8/8 17/7/7 14/10/10
f 45/11/11 18/12/12 19/13/13
f 20/14/14 21/15/15 19/13/13
f 25/16/16 24/17/17 22/18/18
f 29/19/19 27/20/20 46/21/21
f 30/22/22 33/23/23 32/24/24
f 32/24/24 34/25/25 31/26/26
f 33/23/23 34/25/25 32/24/24
f 38/27/27 37/28/28 39/29/29
f 2/3/3 5/2/2 1/30/30
f 3/31/31 4/1/31 2/3/31
f 8/4/4 9/32/32 10/5/5
f 13/33/33 14/10/33 17/7/33
f 15/8/8 16/34/34 12/9/9
f 23/35/35 24/17/17 25/16/16
f 44/36/36 42/37/37 41/38/38
f 28/39/39 29/19/19 46/21/21
f 39/29/29 36/40/40 38/27/27
f 43/41/41 40/42/42 42/37/37
f 19/13/13 21/15/15 45/11/11
f 44/36/36 43/41/41 42/37/37
l 6 7
l 7 11
l 26 27
l 35 37
